:SAMPLES-PER-SECOND 25
:FULLY-SPECIFIED
:DEGREES
99
root  16.6672 55.6541 -47.4843 35.9128 -37.1131 -33.7277
RightUpLeg  -94.916 -6.11096 6.38174
RightLeg  118.032 -4.32896 8.19137
RightFoot  -33.6071 1.1517 7.02599
RightToes  2.84633e-005 7.89722e-005 -0.000426369
Spine  14.2193 -0.104879 4.21469
Spine1  29.0961 0.593446 7.22417
HEad  1.21123 27.4032 -15.5295
LeftShoulder1  -3.88251e-019 0 -3.92111e-022
LeftArm  -32.6561 -20.5127 -61.139
LeftForeArm  10.7984 2.20308 3.71168
LeftHand  -0.424212 -9.95802 3.5858
RightShoulder  7.45443e-017 -2.42657e-020 1.96277e-018
RightArm  6.76735 33.3129 51.612
RightForeArm  -12.8719 38.3157 9.59164
RightHand  -1.25101 15.7603 -7.281
LeftUpLeg  -41.5389 21.3989 8.56072
LeftLeg  116.074 -1.09848 1.45073
LeftFoot  -39.5396 -1.07931 -5.25075
LeftToes  3.91355e-005 3.11907e-005 -4.10385e-006
100
root  16.1549 56.0665 -47.6525 35.8302 -36.7234 -34.5597
RightUpLeg  -97.3674 -3.01791 14.6903
RightLeg  112.993 -5.48777 12.4116
RightFoot  -32.5369 1.43306 8.81871
RightToes  2.84633e-005 7.89722e-005 -0.000426369
Spine  13.9748 -1.00932 4.26084
Spine1  28.5694 -0.752829 6.4342
HEad  0.979523 29.2893 -14.115
LeftShoulder1  -3.88251e-019 0 -3.92111e-022
LeftArm  -32.7574 -18.3213 -57.1899
LeftForeArm  10.836 2.20764 3.66824
LeftHand  0.067731 -9.55861 -0.121912
RightShoulder  7.45443e-017 -2.42657e-020 1.96277e-018
RightArm  5.22968 28.9628 50.8994
RightForeArm  -13.3052 40.5108 10.3569
RightHand  -1.58969 15.7623 -9.12802
LeftUpLeg  -39.5493 22.6139 11.7777
LeftLeg  114.59 -0.665143 0.69779
LeftFoot  -40.1868 -1.06517 -5.09051
LeftToes  3.91355e-005 3.11907e-005 -4.10385e-006
101
root  15.5868 56.3594 -47.7935 35.7953 -36.5553 -35.0924
RightUpLeg  -97.5252 0.318244 21.1095
RightLeg  106.913 -5.28385 16.034
RightFoot  -30.5244 1.73467 11.4656
RightToes  2.84633e-005 7.89722e-005 -0.000426369
Spine  13.6832 -1.67299 4.51901
Spine1  27.9142 -1.77513 6.10064
HEad  0.505558 30.6228 -13.588
LeftShoulder1  -3.88251e-019 0 -3.92111e-022
LeftArm  -32.567 -15.9388 -54.3997
LeftForeArm  12.4861 2.20135 3.19925
LeftHand  0.352973 -8.78474 -2.49399
RightShoulder  7.45443e-017 -2.42657e-020 1.96277e-018
RightArm  3.07357 24.0887 49.6066
RightForeArm  -11.1365 42.6034 10.988
RightHand  -2.172 16.1254 -12.0765
LeftUpLeg  -37.6525 23.7389 14.596
LeftLeg  113.996 -0.17932 -0.275709
LeftFoot  -40.8731 -1.16445 -5.35885
LeftToes  3.91355e-005 3.11907e-005 -4.10385e-006
102
root  14.9692 56.5526 -47.8172 34.5978 -36.1939 -34.3477
RightUpLeg  -95.9547 2.35555 24.9601
RightLeg  102.145 -4.70382 19.1671
RightFoot  -23.5532 0.769541 8.09529
RightToes  2.84633e-005 7.89722e-005 -0.000426369
Spine  13.4869 -2.23045 4.84648
Spine1  27.4277 -2.74616 6.21002
HEad  0.929233 30.7355 -12.8932
LeftShoulder1  -3.88251e-019 0 -3.92111e-022
LeftArm  -32.2038 -14.1326 -54.0123
LeftForeArm  17.2815 2.13739 3.05686
LeftHand  0.20155 -7.70057 -1.40125
RightShoulder  7.45443e-017 -2.42657e-020 1.96277e-018
RightArm  0.273445 18.856 47.925
RightForeArm  -7.72248 44.3682 11.4607
RightHand  -2.51125 15.8776 -14.0281
LeftUpLeg  -35.335 23.858 16.8075
LeftLeg  113.245 0.556383 -1.83864
LeftFoot  -41.6014 -1.39049 -6.07532
LeftToes  3.91355e-005 3.11907e-005 -4.10385e-006
103
root  14.2377 56.6638 -47.6821 32.9375 -35.7728 -32.7116
RightUpLeg  -94.4859 4.11107 26.0572
RightLeg  101.973 -3.60947 15.6269
RightFoot  -19.4323 -0.425904 -3.21534
RightToes  2.84633e-005 7.89722e-005 -0.000426369
Spine  13.2472 -2.6301 5.05103
Spine1  26.9336 -3.42087 6.66991
HEad  1.57313 29.9422 -13.0491
LeftShoulder1  -3.88251e-019 0 -3.92111e-022
LeftArm  -31.9085 -12.5086 -55.917
LeftForeArm  20.8027 2.05514 3.79965
LeftHand  -0.362345 -6.35275 3.90316
RightShoulder  7.45443e-017 -2.42657e-020 1.96277e-018
RightArm  -1.4206 13.8094 46.5263
RightForeArm  -7.24153 45.8001 12.0135
RightHand  -2.79798 16.0313 -15.4536
LeftUpLeg  -32.7894 23.0804 18.5435
LeftLeg  111.925 1.193 -3.37704
LeftFoot  -42.4401 -1.5942 -6.65437
LeftToes  3.91355e-005 3.11907e-005 -4.10385e-006
104
root  13.4516 56.6495 -47.4813 30.5572 -34.2651 -29.5824
RightUpLeg  -94.1546 5.00838 23.8757
RightLeg  104.652 -2.78247 10.3611
RightFoot  -22.7847 -0.614515 -4.68271
RightToes  2.84633e-005 7.89722e-005 -0.000426369
Spine  12.7705 -3.34285 5.12904
Spine1  25.9915 -4.69744 7.10379
HEad  2.47022 29.1394 -13.1232
LeftShoulder1  -3.88251e-019 0 -3.92111e-022
LeftArm  -32.1556 -10.461 -58.8763
LeftForeArm  20.304 2.05548 4.98937
LeftHand  -0.832078 -5.29968 9.34572
RightShoulder  7.45443e-017 -2.42657e-020 1.96277e-018
RightArm  -1.72896 9.81693 45.3502
RightForeArm  -7.9042 46.5645 12.38
RightHand  -2.93655 16.1012 -16.1404
LeftUpLeg  -30.6121 20.3406 19.7927
LeftLeg  110.77 2.72548 -7.15932
LeftFoot  -43.3047 -1.61927 -6.57269
LeftToes  3.91355e-005 3.11907e-005 -4.10385e-006
